<svg t="1705149248630" class="icon" viewBox="0 0 1068 1024" version="1.1" xmlns="http://www.w3.org/2000/svg" p-id="2411" width="200" height="200"><path d="M700.40436219 747.45410375a392.11267594 392.11267594 0 0 1-41.72899407 174.60903375 368.3341425 368.3341425 0 0 1-44.06022375 69.9368625H183.10470219a151.29674625 151.29674625 0 0 1-150.59737688-163.1860125l30.30597375-396.3088875a369.96600281 369.96600281 0 0 1 73.66682813-44.75959219 391.4133075 391.4133075 0 0 1 167.6153475-37.29966 396.3088875 396.3088875 0 0 1 396.3088875 397.00825594z" fill="#FFD000" p-id="2412"></path><path d="M879.90897688 992H182.87157969a150.83050031 150.83050031 0 0 1-150.36425438-163.1860125L82.86186594 171.873725a151.52986875 151.52986875 0 0 1 150.36425531-139.873725h596.32831406a151.76299219 151.76299219 0 0 1 150.59737781 139.873725l51.520155 656.9402625a151.29674625 151.29674625 0 0 1-150.59737687 163.1860125zM233.22612125 102.86935438a81.35988375 81.35988375 0 0 0-80.66051531 75.06556593L102.21106531 834.87518188a81.12676031 81.12676031 0 0 0 80.66051438 87.18795562h697.03739718a81.35988375 81.35988375 0 0 0 80.89363782-87.18795563L910.44807313 177.70179688a81.35988375 81.35988375 0 0 0-80.89363782-74.83244251z" fill="#000000" p-id="2413"></path><path d="M531.39027781 439.03254031c-122.62263281 0-231.95726063-51.520155-279.74745-131.01505593a35.01505594 35.01505594 0 0 1 60.378825-35.43467719c33.80281687 57.81447281 121.69014094 96.51287063 218.43613407 96.51287062s184.63331719-38.69839688 218.66925656-96.51287062a34.96843125 34.96843125 0 0 1 60.14570156 35.43467718c-45.69208313 79.4949-155.25983531 131.01505594-277.88246719 131.01505594z" fill="#000000" p-id="2414"></path></svg>